<svg
      width="20px"
      height="20px"
      xmlns="http://www.w3.org/2000/svg"
      xmlns:xlink="http://www.w3.org/1999/xlink"
    >
      <defs>
        <path
          d="M10,0 C15.5228475,0 20,4.4771525 20,10 C20,15.5228475 15.5228475,20 10,20 C4.4771525,20 0,15.5228475 0,10 C0,4.4771525 4.4771525,0 10,0 Z M10,1.5 C5.30557963,1.5 1.5,5.30557963 1.5,10 C1.5,14.6944204 5.30557963,18.5 10,18.5 C14.6944204,18.5 18.5,14.6944204 18.5,10 C18.5,5.30557963 14.6944204,1.5 10,1.5 Z M13.82,7 L15,8.1933657 L10,13.25 L5,8.1933657 L6.18,7 L10,10.8834951 L13.82,7 Z"
          id="path-1"
        ></path>
      </defs>
      <g fill="none" fill-rule="evenodd">
        <g>
          <g>
            <mask id="as">
              <use xlink:href="#path-1"></use>
            </mask>
            <use fill="initial" fill-rule="nonzero" xlink:href="#path-1"></use>
            <g mask="url(#as)" fill="initial">
              <g transform="translate(-40.000000, -39.000000)">
                <rect x="0" y="0" width="100" height="100"></rect>
              </g>
            </g>
          </g>
        </g>
      </g>
    </svg>