<?xml version="1.0" encoding="UTF-8"?><svg id="b" xmlns="http://www.w3.org/2000/svg" viewBox="0 0 103.61 103.61"><defs><style>.d{fill:#1e85ff;}</style></defs><g id="c"><path class="d" d="m84.68,0H18.93C8.47,0,0,8.47,0,18.93v65.75c0,10.45,8.47,18.93,18.93,18.93h65.75c10.45,0,18.93-8.47,18.93-18.93V18.93c0-10.45-8.47-18.93-18.93-18.93ZM18.93,84.68l23.41-32.87L18.93,18.93h18.93l23.41,32.87-23.41,32.87h-18.93Zm46.82,0l-9.22-12.94,9.46-13.29,18.68,26.23h-18.93Zm.24-39.52l-9.46-13.29,9.22-12.94h18.93l-18.68,26.23Z"/></g></svg>