<svg viewBox="0 0 30 30"><defs><linearGradient id="b" x1="-1.07" y1="17.83" x2="31.07" y2="12.17" gradientUnits="userSpaceOnUse"><stop offset="0" stop-color="#0096db"/><stop offset=".43" stop-color="#0072a8"/><stop offset=".8" stop-color="#005882"/><stop offset="1" stop-color="#004e74"/></linearGradient><linearGradient id="a" x1="22.27" y1="3.45" x2="14.69" y2="16.56" gradientUnits="userSpaceOnUse"><stop offset=".06" stop-color="#a5cd39"/><stop offset=".97" stop-color="#00af4c"/></linearGradient><linearGradient id="c" x1="20.82" y1="23.14" x2="14.57" y2="14.89" xmlns:xlink="http://www.w3.org/1999/xlink" xlink:href="#a"/><linearGradient id="d" x1="7.07" y1="12.19" x2="16.63" y2="12.19" gradientUnits="userSpaceOnUse"><stop offset=".06" stop-color="#fff"/><stop offset=".97" stop-color="#d0d2d3"/></linearGradient></defs><g style="isolation:isolate"><rect width="30" height="30" rx="6.67" ry="6.67" fill="url(#b)"/><path fill="url(#a)" d="M11.99 15h6.02l6.96-9.99h-6.11L11.99 15z"/><path fill="url(#c)" d="M11.99 15h6.02l6.96 9.99h-6.11L11.99 15z"/><path fill="url(#d)" d="M18.01 15L15 19.38 5.03 5.01h6.11L18.01 15z"/><path fill="#fff" d="M18.01 15L15 10.62 5.03 24.99h6.11L18.01 15z"/><path style="mix-blend-mode:multiply" opacity=".1" d="M15 10.62l-3.75 3.36.74 1.02L15 10.62z"/></g></svg>