<svg width="50" height="50" viewBox="0 0 50 50" fill="none" xmlns="http://www.w3.org/2000/svg">
<path d="M6 24H44V43C44 44.6569 42.6569 46 41 46H9C7.34315 46 6 44.6569 6 43L6 24Z" fill="#435088"/>
<circle cx="13.378" cy="12.378" r="8.37803" fill="#435088"/>
<circle cx="36.378" cy="12.378" r="8.37803" fill="#435088"/>
<circle cx="25" cy="24" r="19" fill="#99B6FF"/>
<path d="M23 14C23 12.8954 23.8954 12 25 12C26.1046 12 27 12.8954 27 14V25C27 26.1046 26.1046 27 25 27C23.8954 27 23 26.1046 23 25V14Z" fill="#435088"/>
<path d="M32 23C33.1046 23 34 23.8954 34 25C34 26.1046 33.1046 27 32 27L25 27C23.8954 27 23 26.1046 23 25C23 23.8954 23.8954 23 25 23L32 23Z" fill="#435088"/>
</svg>
