<svg width="50" height="50" viewBox="0 0 50 50" fill="none" xmlns="http://www.w3.org/2000/svg">
<path d="M8 6C8 4.34314 9.34315 3 11 3L29.5 3L41.9474 15.4474L41.9474 43C41.9474 44.6569 40.6042 46 38.9474 46H11C9.34314 46 8 44.6569 8 43V6Z" fill="#FFC227"/>
<path d="M29.5 12.4474V3L41.9474 15.4474H32.5C30.8431 15.4474 29.5 14.1042 29.5 12.4474Z" fill="#CF7018"/>
<path d="M14.9893 26.0309C14.9893 24.928 15.8833 24.034 16.9862 24.034C18.089 24.034 18.9831 24.928 18.9831 26.0309C18.9831 27.1338 18.089 28.0278 16.9862 28.0278C15.8833 28.0278 14.9893 27.1338 14.9893 26.0309Z" fill="#CF7018"/>
<path d="M22.9766 26.0309C22.9766 24.928 23.8706 24.034 24.9735 24.034C26.0763 24.034 26.9704 24.928 26.9704 26.0309C26.9704 27.1338 26.0763 28.0278 24.9735 28.0278C23.8706 28.0278 22.9766 27.1338 22.9766 26.0309Z" fill="#CF7018"/>
<path d="M30.9648 26.0309C30.9648 24.928 31.8589 24.034 32.9617 24.034C34.0646 24.034 34.9587 24.928 34.9587 26.0309C34.9587 27.1338 34.0646 28.0278 32.9617 28.0278C31.8589 28.0278 30.9648 27.1338 30.9648 26.0309Z" fill="#CF7018"/>
</svg>
