<svg width="50" height="50" viewBox="0 0 50 50" fill="none" xmlns="http://www.w3.org/2000/svg">
<path d="M17.6089 17.6092C18.971 16.2471 21.1794 16.2471 22.5415 17.6092L43.5334 38.6011C44.8955 39.9632 44.8955 42.1716 43.5334 43.5337C42.1713 44.8958 39.9629 44.8958 38.6008 43.5337L17.6089 22.5418C16.2468 21.1797 16.2468 18.9713 17.6089 17.6092Z" fill="#1980A9"/>
<path d="M3 20.383C3 10.7826 10.7826 3 20.383 3C29.9834 3 37.766 10.7826 37.766 20.383C37.766 29.9834 29.9834 37.766 20.383 37.766C10.7826 37.766 3 29.9834 3 20.383Z" fill="#1980A9"/>
<path d="M6.65918 20.383C6.65918 12.8037 12.8034 6.65955 20.3826 6.65955C27.9619 6.65955 34.106 12.8037 34.106 20.383C34.106 27.9622 27.9619 34.1064 20.3826 34.1064C12.8034 34.1064 6.65918 27.9622 6.65918 20.383Z" fill="#A6DAF2"/>
<path d="M18.0957 20.3829C18.0957 19.1197 19.1197 18.0957 20.3829 18.0957C21.6461 18.0957 22.6702 19.1197 22.6702 20.3829C22.6702 21.6461 21.6461 22.6702 20.3829 22.6702C19.1197 22.6702 18.0957 21.6461 18.0957 20.3829Z" fill="#1980A9"/>
<path d="M10.7764 20.3829C10.7764 19.1197 11.8004 18.0957 13.0636 18.0957C14.3268 18.0957 15.3508 19.1197 15.3508 20.3829C15.3508 21.6461 14.3268 22.6702 13.0636 22.6702C11.8004 22.6702 10.7764 21.6461 10.7764 20.3829Z" fill="#1980A9"/>
<path d="M25.415 20.3829C25.415 19.1197 26.4391 18.0957 27.7023 18.0957C28.9655 18.0957 29.9895 19.1197 29.9895 20.3829C29.9895 21.6461 28.9655 22.6702 27.7023 22.6702C26.4391 22.6702 25.415 21.6461 25.415 20.3829Z" fill="#1980A9"/>
</svg>
