<svg width="50" height="50" viewBox="0 0 50 50" fill="none" xmlns="http://www.w3.org/2000/svg">
<path d="M4 6C4 4.34315 5.34315 3 7 3H23.6552L31 3C32.6569 3 34 4.34315 34 6V13.2703V38C34 39.6569 32.6569 41 31 41H7C5.34315 41 4 39.6569 4 38V6Z" fill="#1980A9"/>
<path d="M15 11C15 9.34315 16.3431 8 18 8L34 8L45 19L45 43C45 44.6569 43.6569 46 42 46H18C16.3431 46 15 44.6569 15 43V11Z" fill="#A6DAF2"/>
<path d="M34 16V8L45 19H37C35.3431 19 34 17.6569 34 16Z" fill="#1980A9"/>
<rect x="19" y="37" width="22" height="4" rx="2" fill="#1980A9"/>
<path d="M19 31C19 29.8954 19.8954 29 21 29H31C32.1046 29 33 29.8954 33 31C33 32.1046 32.1046 33 31 33H21C19.8954 33 19 32.1046 19 31Z" fill="#1980A9"/>
</svg>
