<svg width="50" height="50" viewBox="0 0 50 50" fill="none" xmlns="http://www.w3.org/2000/svg">
<path d="M33 26.7143C33 23.1994 25.2843 19 17 19C8.71573 19 2 23.1994 2 26.7143L2 35.5C2 36.3284 2.67157 37 3.5 37H31.5C32.3284 37 33 36.3284 33 35.5V26.7143Z" fill="#435088"/>
<circle cx="17" cy="11" r="8" fill="#435088"/>
<path d="M48 36.7143C48 33.1994 41.2843 29 33 29C24.7157 29 18 33.1994 18 36.7143L18 45.5C18 46.3284 18.6716 47 19.5 47H46.5C47.3284 47 48 46.3284 48 45.5V36.7143Z" fill="#99B6FF"/>
<circle cx="33" cy="21" r="8" fill="#99B6FF"/>
</svg>
