<svg width="50" height="50" viewBox="0 0 50 50" fill="none" xmlns="http://www.w3.org/2000/svg">
<path d="M22.3588 6.68835C23.4918 4.58609 26.5075 4.58611 27.6405 6.68839L46.4311 41.5541C47.5083 43.5528 46.0607 45.9774 43.7902 45.9774H6.20845C3.93792 45.9774 2.49035 43.5528 3.56758 41.5541L22.3588 6.68835Z" fill="#CF45B2"/>
<path d="M25 18.0298C26.1046 18.0298 27 18.9252 27 20.0298L27 30.4991C27 31.6037 26.1046 32.4991 25 32.4991C23.8954 32.4991 23 31.6037 23 30.4991L23 20.0298C23 18.9252 23.8954 18.0298 25 18.0298Z" fill="#752162"/>
<path d="M22.5 37.5131C22.5 36.1324 23.6193 35.0131 25 35.0131C26.3807 35.0131 27.5 36.1324 27.5 37.5131C27.5 38.8938 26.3807 40.0131 25 40.0131C23.6193 40.0131 22.5 38.8938 22.5 37.5131Z" fill="#752162"/>
</svg>
