<svg xmlns="http://www.w3.org/2000/svg" width="62" height="62" viewBox="0 0 62 62">
    <g fill="none" fill-rule="evenodd" transform="translate(.333 .333)">
        <circle cx="30.667" cy="30.667" r="30.667" fill="#404041"/>
        <circle cx="30.667" cy="30.667" r="26.286" fill="#FBFDFF"/>
        <g fill="#404041" transform="translate(29.79 3.505)">
            <rect width="2.044" height="8.324" y="48.19" rx="1"/>
            <rect width="2.044" height="5.257" rx="1"/>
        </g>
        <g fill="#404041" transform="rotate(90 14.165 44.248)">
            <rect width="2.044" height="8.324" y="49.213" rx="1"/>
            <rect width="2.044" height="7.302" rx="1"/>
        </g>
        <g transform="translate(15.625 11.39)">
            <path fill="#C32526" d="M17.168 15.836c.19.15.224.424.075.615L2.14 35.784c-.149.19-.424.224-.615.075-.19-.149-.224-.424-.075-.615l15.104-19.332c.149-.191.424-.225.615-.076z"/>
            <rect width="2.629" height="16.648" x="13.727" fill="#404041" rx="1.314"/>
            <rect width="12.267" height="2.629" x="17.67" y="18.4" fill="#404041" rx="1.314"/>
            <circle cx="15.333" cy="19.422" r="4.089" fill="#FFC63E"/>
        </g>
    </g>
</svg>
