<svg xmlns="http://www.w3.org/2000/svg" width="31" height="40" viewBox="0 0 31 40">
    <path fill="#FBFDFF" fill-rule="evenodd" d="M20.837 0c.08 0 .16.007.24.02l-.756.003v8.776l.001.048c.024.703.562 1.274 1.248 1.345l.139.007 9.291.024V38.6c0 .773-.627 1.4-1.4 1.4H1.4C.627 40 0 39.373 0 38.6V1.4C0 .627.627 0 1.4 0h19.437zm5.592 33.7l-21.9.001c-.475.022-.853.416-.853.899 0 .497.4.9.895.9h21.858l.043-.001c.474-.022.852-.416.852-.899 0-.497-.4-.9-.895-.9zm0-4l-21.9.001c-.475.022-.853.416-.853.899 0 .497.4.9.895.9h21.858l.043-.001c.474-.022.852-.416.852-.899 0-.497-.4-.9-.895-.9zm-12.32-4l-9.58.001c-.475.022-.853.416-.853.899 0 .497.4.9.895.9h9.538l.042-.001c.474-.022.852-.416.852-.899 0-.497-.4-.9-.894-.9zm9.34-7.6l-18.92.001c-.475.022-.853.416-.853.899 0 .497.4.9.895.9h18.878l.042-.001c.474-.022.852-.416.852-.899 0-.497-.4-.9-.894-.9zm2.98-4l-21.9.001c-.475.022-.853.416-.853.899 0 .497.4.9.895.9h21.858l.043-.001c.474-.022.852-.416.852-.899 0-.497-.4-.9-.895-.9zM21.117.028c.253.052.49.173.68.353l8.763 8.254c.224.211.37.488.42.788l-9.27-.024-.034-.001c-.281-.017-.51-.23-.552-.505l-.008-.094.001-8.77z"/>
</svg>
