<svg xmlns="http://www.w3.org/2000/svg" width="40" height="40" viewBox="0 0 40 40">
    <defs>
        <filter id="prefix__a">
            <feColorMatrix in="SourceGraphic" values="0 0 0 0 0.984314 0 0 0 0 0.992157 0 0 0 0 1.000000 0 0 0 1.000000 0"/>
        </filter>
    </defs>
    <g fill="none" fill-rule="evenodd" filter="url(#prefix__a)">
        <g fill="#404041">
            <path fill-rule="nonzero" d="M0 20C0 8.954 8.954 0 20 0s20 8.954 20 20m-1 0C39 9.507 30.493 1 20 1S1 9.507 1 20" transform="translate(0 10)"/>
            <path d="M19.9 3.5c9.113 0 16.5 7.387 16.5 16.5H23.587c-.031-.372-.121-.729-.26-1.059l5.635-3.987.035-.026c.331-.262.403-.74.156-1.089-.255-.36-.754-.446-1.115-.191l-5.655 4c-.613-.529-1.41-.848-2.283-.848-1.832 0-3.335 1.408-3.487 3.2H3.4c0-9.113 7.387-16.5 16.5-16.5zm13.094 12.798c-.114-.427-.553-.68-.98-.566l-4.443 1.19-.038.012c-.403.13-.638.554-.527.968.114.427.553.68.98.566l4.443-1.19.038-.012c.403-.13.638-.554.527-.968zm-25.588 0c-.111.414.124.839.527.968l.038.011 4.444 1.191c.426.114.865-.139.98-.566.11-.414-.125-.839-.528-.968l-.038-.011-4.444-1.191c-.426-.114-.865.139-.98.566zm21.678-6.745c-.303-.322-.809-.339-1.131-.037l-3.2 3-.031.031c-.292.305-.298.789-.006 1.1.303.322.809.339 1.131.037l3.2-3 .031-.031c.292-.305.298-.789.006-1.1zm-17.968 0c-.292.311-.286.795.006 1.1l.03.03 3.2 3c.323.303.83.286 1.132-.036.292-.311.286-.795-.006-1.1l-.03-.03-3.2-3c-.323-.303-.83-.286-1.132.036zM20.2 6c-.442 0-.8.358-.8.8l.001 4.64c.02.423.37.76.799.76.442 0 .8-.358.8-.8V6.8l-.001-.04c-.02-.423-.37-.76-.799-.76z" transform="translate(0 10)"/>
            <path fill-rule="nonzero" d="M21 0.4L21 5 19.2 5 19.2 0.4z" transform="translate(0 10)"/>
            <path fill-rule="nonzero" d="M3.9 16.8L3.9 21.4 2.1 21.4 2.1 16.8z" transform="translate(0 10) rotate(90 3 19.1)"/>
            <path fill-rule="nonzero" d="M38.4 17L38.4 21.2 36.6 21.2 36.6 17z" transform="translate(0 10) rotate(90 37.5 19.1)"/>
        </g>
    </g>
</svg>
