<svg width="30" height="40" viewBox="0 0 30 40" fill="none" xmlns="http://www.w3.org/2000/svg">
  <path fill-rule="evenodd" clip-rule="evenodd" d="M15.5714 5C16.952 5 18.2514 5.35211 19.4695 6.05634C20.6877 6.76057 21.6521 7.71629 22.3627 8.92354C23.0733 10.1308 23.4286 11.4185 23.4286 12.7867V17.8571H7.71429V12.7867C7.71429 11.4185 8.06958 10.1308 8.78018 8.92354C9.49078 7.71629 10.4551 6.76057 11.6733 6.05634C12.8915 5.35211 14.1908 5 15.5714 5ZM15.6393 7.85714C14.7488 7.85714 13.9107 8.11144 13.125 8.62005C12.3393 9.12866 11.7173 9.81891 11.2589 10.6908C10.8006 11.5627 10.5714 12.4927 10.5714 13.4809V17.1429H20.7071V13.4809C20.7071 12.4927 20.478 11.5627 20.0196 10.6908C19.5613 9.81891 18.9393 9.12866 18.1536 8.62005C17.3679 8.11144 16.5298 7.85714 15.6393 7.85714Z" fill="#404041"/>
  <path fill-rule="evenodd" clip-rule="evenodd" d="M4.85714 17.1429H25.5714C27.1494 17.1429 28.4286 18.422 28.4286 20V32.1429C28.4286 33.7208 27.1494 35 25.5714 35H4.85714C3.27919 35 2 33.7208 2 32.1429V20C2 18.422 3.27919 17.1429 4.85714 17.1429ZM17.2859 27.2858C17.9798 26.7645 18.4286 25.9347 18.4286 25C18.4286 23.422 17.1494 22.1429 15.5714 22.1429C13.9935 22.1429 12.7143 23.422 12.7143 25C12.7143 25.9347 13.1631 26.7645 13.8569 27.2858C13.588 27.6439 13.4286 28.0891 13.4286 28.5714C13.4286 29.7549 14.388 30.7143 15.5714 30.7143C16.7549 30.7143 17.7143 29.7549 17.7143 28.5714C17.7143 28.0891 17.5549 27.6439 17.2859 27.2858Z" fill="#404041"/>
</svg>
