<svg width="40" height="40" viewBox="0 0 40 40" fill="none" xmlns="http://www.w3.org/2000/svg">
<g clip-path="url(#clip0_1_355)">
<path d="M32.6918 0H7.30818C3.26995 0 0 3.26995 0 7.30818V32.6918C0 36.7262 3.26995 40 7.30818 40H32.6918C36.7262 40 40 36.73 40 32.6918V7.30818C40 3.27382 36.73 0 32.6918 0ZM7.30818 32.6918L16.3459 20.0019L7.30818 7.30818H14.6164L23.6541 19.9981L14.6164 32.688H7.30818V32.6918ZM25.3836 32.6918L21.8241 27.6962L25.4763 22.5654L32.688 32.6918H25.3798H25.3836ZM25.4763 17.4346L21.8241 12.3038L25.3836 7.30818H32.6918L25.4802 17.4346H25.4763Z" fill="#1E85FF"/>
</g>
<defs>
<clipPath id="clip0_1_355">
<rect width="40" height="40" fill="white"/>
</clipPath>
</defs>
</svg>
