<svg xmlns="http://www.w3.org/2000/svg" width="137" height="137" viewBox="0 0 137 137">
    <g fill="none" fill-rule="evenodd">
        <circle cx="68.5" cy="68.5" r="68.5" fill="#AB218E"/>
        <g>
            <path fill="#FBFDFF" d="M8.056 6.051L70.574 6.065 70.592 87.819 8.074 87.806z" transform="translate(39.324 17.76) rotate(12 39.324 46.935)"/>
            <g fill="#37657E" fill-opacity=".6" fill-rule="nonzero">
                <path d="M7.746 39.12h14.437c.7 0 1.268-.568 1.268-1.269 0-.7-.568-1.269-1.268-1.269H7.746c-.7 0-1.269.568-1.269 1.269 0 .7.568 1.268 1.269 1.268zM0 39.12h1.008c.7 0 1.269-.568 1.269-1.269 0-.7-.568-1.269-1.269-1.269H0c-.7 0-1.269.568-1.269 1.269 0 .7.568 1.268 1.269 1.268zM28.926 30.035h21.49c.7 0 1.268-.568 1.268-1.268 0-.7-.568-1.269-1.269-1.269h-21.49c-.7 0-1.268.568-1.268 1.269 0 .7.568 1.268 1.269 1.268zM.72 1.773h18.395c.701 0 1.269-.568 1.269-1.268 0-.7-.568-1.269-1.269-1.269H.72c-.7 0-1.268.568-1.268 1.269 0 .7.568 1.268 1.268 1.268zM.655 30.035h12.453c.7 0 1.269-.568 1.269-1.268 0-.7-.568-1.269-1.269-1.269H.655c-.7 0-1.268.568-1.268 1.269 0 .7.568 1.268 1.268 1.268zM18.99 30.035h4.201c.7 0 1.269-.568 1.269-1.268 0-.7-.568-1.269-1.269-1.269H18.99c-.7 0-1.269.568-1.269 1.269 0 .7.568 1.268 1.269 1.268zM.68 10.857h30.314c.7 0 1.269-.568 1.269-1.268 0-.7-.568-1.269-1.269-1.269H.68c-.701 0-1.269.568-1.269 1.269 0 .7.568 1.268 1.269 1.268zM.68 19.942h24.528c.7 0 1.268-.568 1.268-1.269 0-.7-.568-1.268-1.268-1.268H.68c-.701 0-1.269.568-1.269 1.268 0 .7.568 1.269 1.269 1.269zM38.036 19.942h12.38c.7 0 1.268-.568 1.268-1.269 0-.7-.568-1.268-1.269-1.268h-12.38c-.7 0-1.268.568-1.268 1.268 0 .7.568 1.269 1.269 1.269z" transform="translate(39.324 17.76) rotate(12 -30.158 107.513)"/>
            </g>
            <g>
                <path fill="#37657E" fill-opacity=".6" fill-rule="nonzero" d="M36.54 8.334h15.472c.7 0 1.268-.568 1.268-1.268 0-.701-.567-1.269-1.268-1.269H36.54c-.7 0-1.269.568-1.269 1.269 0 .7.568 1.268 1.269 1.268zM21.505 8.334h9.753c.7 0 1.268-.568 1.268-1.268 0-.701-.568-1.269-1.268-1.269h-9.753c-.7 0-1.269.568-1.269 1.269 0 .7.568 1.268 1.269 1.268zM21.505 14.39h21.852c.7 0 1.269-.568 1.269-1.268 0-.7-.568-1.269-1.269-1.269H21.505c-.7 0-1.269.568-1.269 1.269 0 .7.568 1.268 1.269 1.268z" transform="translate(39.324 17.76) rotate(12 -264.933 78.026)"/>
                <path fill="#0574B0" d="M0 0H14.116V14.131H0z" transform="translate(39.324 17.76) rotate(12 -264.933 78.026)"/>
                <path fill="#37657E" fill-opacity=".6" fill-rule="nonzero" d="M21.382 2.278h30.315c.7 0 1.269-.568 1.269-1.269 0-.7-.568-1.268-1.269-1.268H21.382c-.7 0-1.268.568-1.268 1.268 0 .7.568 1.269 1.268 1.269z" transform="translate(39.324 17.76) rotate(12 -264.933 78.026)"/>
            </g>
            <path fill="#0574B0" d="M58.196 15.74L70.297 15.742 70.299 27.854 58.199 27.852z" opacity=".5" transform="translate(39.324 17.76) rotate(12 64.248 21.797)"/>
        </g>
        <g fill="#FFDE3B">
            <path d="M.292.816H58.78c.92 0 1.666.746 1.666 1.667v80.389c0 .92-.746 1.666-1.666 1.666H.292V.816z" transform="translate(25.37 29.176)"/>
            <path d="M57.041 11.138l7.104 1.778c.494.124.841.568.841 1.078v22.272c0 .474-.3.895-.747 1.05L57.04 39.81V11.138z" transform="translate(25.37 29.176)"/>
        </g>
    </g>
</svg>
