<svg xmlns="http://www.w3.org/2000/svg" width="14" height="15" viewBox="0 0 14 15">
    <g fill="none" fill-rule="evenodd">
        <g fill="#FBFDFF" fill-rule="nonzero">
            <g>
                <path d="M187.857 30.143c2.045 0 3.973-.902 5.277-2.473.09-.116.09-.286-.018-.384l-1.223-1.232c-.063-.054-.143-.08-.223-.08-.08.008-.161.044-.206.106-.875 1.134-2.187 1.777-3.607 1.777-2.518 0-4.571-2.053-4.571-4.571s2.053-4.572 4.571-4.572c1.17 0 2.277.447 3.116 1.223l-1.232 1.233c-.17.16-.214.41-.125.616.09.214.295.357.527.357h4c.312 0 .571-.26.571-.572v-4c0-.232-.143-.437-.348-.526-.214-.09-.464-.045-.625.125l-1.16 1.151c-1.26-1.187-2.965-1.892-4.724-1.892-3.777 0-6.857 3.08-6.857 6.857 0 3.776 3.08 6.857 6.857 6.857z" transform="translate(-372 -152) translate(191 136) matrix(-1 0 0 1 375.714 0)"/>
            </g>
        </g>
    </g>
</svg>
