<svg width="388" height="60" viewBox="0 0 388 60" fill="none" xmlns="http://www.w3.org/2000/svg">
<path d="M68.3895 15.2213C70.4766 15.1664 72.5572 15.4763 74.5377 16.1372C76.056 16.6497 77.4253 17.5272 78.5252 18.6926C79.5434 19.8327 80.2739 21.1999 80.6556 22.6801C81.0919 24.3601 81.3029 26.0907 81.283 27.8264V47.1262C80.1462 47.3725 78.4307 47.6677 76.1367 48.0118C73.5652 48.3713 70.9707 48.5405 68.3743 48.5178C66.6135 48.5337 64.8565 48.3504 63.1369 47.9713C61.682 47.6625 60.3048 47.0617 59.0887 46.2053C57.9737 45.3842 57.08 44.2993 56.4877 43.0477C55.8162 41.5365 55.4945 39.8933 55.5465 38.2404C55.4949 36.6312 55.861 35.036 56.6092 33.6103C57.3164 32.3632 58.3168 31.3072 59.5239 30.5336C60.8179 29.7123 62.2518 29.136 63.7543 28.8334C65.4063 28.4852 67.0909 28.3156 68.7791 28.3274C69.6247 28.3308 70.4694 28.3815 71.3092 28.4792C72.2736 28.5878 73.2302 28.7568 74.1734 28.9852V27.7657C74.1751 26.9448 74.073 26.127 73.8697 25.3317C73.6721 24.5847 73.3069 23.8925 72.802 23.3076C72.2516 22.6895 71.556 22.2182 70.7779 21.9362C69.7719 21.577 68.7085 21.4055 67.6406 21.4302C66.0711 21.4193 64.5036 21.5412 62.9548 21.7946C61.7887 21.9807 60.6409 22.2668 59.5239 22.6497L58.613 16.6837C59.9373 16.2627 61.2902 15.938 62.6613 15.7121C64.5518 15.3749 66.4691 15.2106 68.3895 15.2213V15.2213ZM68.9967 42.6833C70.7388 42.7218 72.4806 42.5947 74.1987 42.3038V34.1568C73.618 33.9991 73.0282 33.8775 72.4326 33.7924C71.5851 33.6655 70.7291 33.6046 69.8721 33.6103C69.0474 33.6113 68.2237 33.6722 67.4078 33.7924C66.6265 33.8971 65.8666 34.1242 65.156 34.4655C64.5063 34.7698 63.9493 35.2413 63.5417 35.8317C63.1165 36.4944 62.9045 37.2715 62.9345 38.0583C62.9345 39.8024 63.4827 41.0084 64.5791 41.6763C65.6755 42.3443 67.148 42.68 68.9967 42.6833Z" fill="#004E74"/>
<path d="M95.2848 47.8701C93.2607 43.6903 91.1725 38.8898 89.0202 33.4686C86.7807 27.7566 84.8317 21.9349 83.1807 16.0259H91.0393C91.4846 17.8138 92.0041 19.7317 92.5978 21.7794C93.1916 23.8271 93.8224 25.8765 94.4904 27.9276C95.1651 29.9787 95.8583 31.9674 96.5701 33.8937C97.2819 35.8199 97.9448 37.5556 98.5588 39.1007C99.166 37.5556 99.8171 35.8199 100.512 33.8937C101.207 31.9674 101.89 29.9787 102.561 27.9276C103.236 25.8799 103.879 23.8305 104.489 21.7794C105.1 19.7283 105.63 17.8071 106.078 16.0157H113.669C112.024 21.9244 110.082 27.7461 107.849 33.4585C105.711 38.8797 103.622 43.6836 101.585 47.8701H95.2848Z" fill="#004E74"/>
<path d="M125.5 8.02053C125.529 8.63333 125.424 9.24515 125.193 9.81326C124.961 10.3814 124.608 10.8921 124.159 11.3097C123.299 12.1092 122.165 12.5461 120.991 12.5292C119.799 12.5547 118.644 12.1177 117.768 11.3097C117.318 10.8921 116.965 10.3814 116.734 9.81326C116.502 9.24515 116.397 8.63333 116.427 8.02053C116.394 7.39835 116.497 6.77656 116.729 6.19816C116.96 5.61976 117.315 5.09857 117.768 4.67063C118.646 3.86633 119.8 3.43138 120.991 3.45617C122.164 3.43792 123.299 3.87295 124.159 4.67063C124.611 5.09857 124.966 5.61976 125.197 6.19816C125.429 6.77656 125.532 7.39835 125.5 8.02053ZM124.705 47.8701H117.343V16.0157H124.705V47.8701Z" fill="#004E74"/>
<path d="M157.951 46.8834C153.894 48.0505 149.694 48.6449 145.472 48.6494C143.167 48.6867 140.875 48.2955 138.712 47.4956C136.796 46.7709 135.061 45.6382 133.626 44.1761C132.192 42.6794 131.093 40.8939 130.403 38.9387C129.621 36.7194 129.239 34.3791 129.275 32.0264C129.247 29.7102 129.564 27.4027 130.216 25.1799C130.78 23.2567 131.723 21.4657 132.989 19.9121C134.197 18.4578 135.725 17.3012 137.452 16.5319C139.354 15.7064 141.411 15.3008 143.484 15.3427C144.863 15.3196 146.239 15.5055 147.562 15.8943C148.608 16.2088 149.624 16.6152 150.599 17.1088V1.21952L157.961 0L157.951 46.8834ZM136.825 31.8442C136.825 35.0929 137.595 37.6399 139.137 39.4852C140.679 41.3306 142.816 42.2549 145.548 42.2583C146.554 42.2673 147.56 42.2166 148.559 42.1065C149.24 42.03 149.915 41.9169 150.583 41.7674V23.5049C149.776 22.9812 148.905 22.5613 147.992 22.255C146.887 21.8656 145.723 21.6704 144.552 21.6782C141.873 21.6782 139.915 22.5907 138.677 24.4158C137.438 26.2408 136.821 28.717 136.825 31.8442Z" fill="#004E74"/>
<path d="M177.549 25.7669L184.315 16.0157H192.047L181.355 31.2674C183.591 34.0708 185.734 36.9062 187.781 39.7737C189.651 42.3539 191.342 45.059 192.842 47.8701H184.816C184.389 47.0206 183.91 46.1976 183.384 45.4058C182.802 44.5151 182.175 43.5841 181.512 42.6125C180.849 41.6409 180.15 40.6896 179.422 39.7383C178.693 38.7869 177.99 37.8963 177.307 37.0563C175.806 38.8051 174.407 40.6382 173.117 42.5467C171.767 44.5506 170.637 46.325 169.726 47.8701H162.212C162.875 46.5397 163.615 45.2489 164.428 44.0041C165.309 42.6547 166.248 41.2715 167.247 39.8546C168.259 38.4479 169.271 37.031 170.349 35.6192C171.427 34.2074 172.469 32.8664 173.511 31.571L162.703 16.0157H170.799L177.549 25.7669Z" fill="#00A04D"/>
<path d="M193.621 31.9657C193.605 29.726 193.977 27.5005 194.719 25.3873C195.401 23.4134 196.469 21.5951 197.861 20.0386C199.243 18.5158 200.936 17.3078 202.826 16.4965C204.906 15.6182 207.146 15.1822 209.404 15.2162C212.32 15.2057 215.21 15.7661 217.91 16.8659L216.342 22.8926C215.408 22.5023 214.441 22.1975 213.452 21.9818C212.322 21.7331 211.168 21.6109 210.011 21.6175C207.127 21.6175 204.934 22.5199 203.433 24.3247C201.932 26.1295 201.181 28.6765 201.181 31.9657C201.181 35.1334 201.891 37.6399 203.311 39.4852C204.732 41.3306 207.127 42.2549 210.497 42.2583C211.744 42.2596 212.988 42.1376 214.211 41.8939C215.302 41.6881 216.37 41.3815 217.404 40.978L218.416 47.0503C217.242 47.5716 216.005 47.9406 214.737 48.1484C213.063 48.482 211.359 48.6515 209.652 48.6544C207.231 48.708 204.824 48.2833 202.567 47.4046C200.66 46.6459 198.951 45.4602 197.573 43.9383C196.228 42.3989 195.226 40.5912 194.633 38.6351C193.953 36.4777 193.611 34.2278 193.621 31.9657V31.9657Z" fill="#00A04D"/>
<path d="M222.92 47.8701V1.21952L230.288 0V16.3801C231.211 16.0675 232.157 15.824 233.116 15.6514C234.17 15.4469 235.241 15.3435 236.314 15.3427C238.484 15.2765 240.646 15.6393 242.675 16.4104C244.256 17.043 245.65 18.0689 246.723 19.3909C247.775 20.7455 248.513 22.3165 248.884 23.9907C249.332 25.9472 249.548 27.9497 249.527 29.9568V47.8701H242.159V31.1156C242.179 29.6562 242.067 28.198 241.825 26.7587C241.664 25.7202 241.29 24.7262 240.727 23.8389C240.235 23.098 239.529 22.5244 238.703 22.1943C237.689 21.8258 236.614 21.654 235.535 21.6883C234.534 21.691 233.536 21.7927 232.555 21.9919C231.794 22.1309 231.042 22.3134 230.303 22.5384V47.8701H222.92Z" fill="#00A04D"/>
<path d="M266.514 15.2213C268.601 15.1664 270.682 15.4763 272.662 16.1372C274.181 16.6486 275.551 17.5262 276.65 18.6926C277.668 19.8327 278.398 21.1999 278.78 22.6801C279.224 24.359 279.44 26.0899 279.423 27.8264V47.1262C278.286 47.3725 276.57 47.6677 274.276 48.0118C271.705 48.3713 269.11 48.5405 266.514 48.5178C264.753 48.5337 262.996 48.3504 261.277 47.9713C259.822 47.6625 258.445 47.0617 257.228 46.2053C256.103 45.3853 255.202 44.2961 254.607 43.0375C253.936 41.5264 253.614 39.8831 253.666 38.2303C253.614 36.621 253.981 35.0259 254.729 33.6002C255.43 32.3554 256.423 31.2996 257.623 30.5235C258.918 29.703 260.351 29.1267 261.854 28.8233C263.506 28.4751 265.19 28.3054 266.878 28.3172C267.732 28.3197 268.586 28.3704 269.434 28.4691C270.398 28.5772 271.355 28.7462 272.298 28.9751V27.7657C272.302 26.9446 272.2 26.1265 271.994 25.3317C271.797 24.5847 271.431 23.8925 270.927 23.3076C270.377 22.6884 269.681 22.2169 268.902 21.9362C267.897 21.5767 266.833 21.4052 265.765 21.4302C264.196 21.4193 262.628 21.5412 261.079 21.7946C259.9 21.9767 258.738 22.2612 257.608 22.6447L256.692 16.6786C258.028 16.2574 259.393 15.9327 260.776 15.7071C262.67 15.3706 264.59 15.208 266.514 15.2213V15.2213ZM267.121 42.6833C268.855 42.7202 270.588 42.5931 272.298 42.3038V34.1568C271.717 33.9986 271.128 33.8769 270.532 33.7924C269.684 33.6655 268.828 33.6046 267.971 33.6103C267.147 33.6115 266.323 33.6723 265.507 33.7924C264.726 33.8979 263.966 34.125 263.255 34.4655C262.607 34.7714 262.05 35.2426 261.641 35.8317C261.216 36.4944 261.004 37.2715 261.034 38.0583C261.034 39.8024 261.582 41.0084 262.678 41.6763C263.775 42.3443 265.256 42.68 267.121 42.6833Z" fill="#00A04D"/>
<path d="M284.777 17.048C286.608 16.5573 288.467 16.1721 290.343 15.8943C292.831 15.5108 295.345 15.3264 297.862 15.3427C300.081 15.2797 302.292 15.6422 304.375 16.4104C305.997 17.0307 307.433 18.057 308.545 19.3909C309.618 20.7476 310.367 22.3311 310.736 24.0211C311.18 25.9678 311.396 27.9599 311.378 29.9568V47.8701H304.021V31.1156C304.04 29.6562 303.929 28.198 303.687 26.7587C303.521 25.7215 303.147 24.7284 302.589 23.8389C302.084 23.091 301.362 22.5167 300.519 22.1943C299.494 21.8281 298.409 21.6565 297.321 21.6883C296.345 21.691 295.37 21.7518 294.401 21.8705C293.389 21.9919 292.635 22.0931 292.144 22.1741V47.8701H284.777V17.048Z" fill="#00A04D"/>
<path d="M342.742 44.6315C342.742 49.6918 341.453 53.4026 338.876 55.7641C336.298 58.1256 332.351 59.3063 327.035 59.3063C325.126 59.3031 323.221 59.1338 321.342 58.8003C319.636 58.5083 317.955 58.0801 316.317 57.52L317.658 51.2504C319.043 51.8153 320.48 52.2424 321.949 52.5255C323.664 52.8668 325.408 53.0363 327.156 53.0316C330.116 53.0316 332.216 52.4193 333.487 51.2048C334.757 49.9903 335.374 48.1686 335.374 45.7853V44.5657C334.441 45.0071 333.475 45.3743 332.485 45.6638C331.149 46.0464 329.765 46.2306 328.376 46.2103C326.476 46.2341 324.588 45.9029 322.809 45.2337C321.171 44.6182 319.692 43.6409 318.483 42.3746C317.228 41.0158 316.274 39.4068 315.685 37.6534C314.976 35.5463 314.633 33.3333 314.673 31.1105C314.648 28.9321 315.01 26.7667 315.74 24.7143C316.402 22.8455 317.462 21.1429 318.847 19.7249C320.253 18.3103 321.944 17.2099 323.806 16.4965C325.926 15.6947 328.179 15.3015 330.445 15.3377C332.729 15.3278 335.009 15.5123 337.262 15.8892C339.414 16.2536 341.241 16.6381 342.742 17.043V44.6315ZM322.222 31.1156C322.222 34.2428 322.897 36.525 324.247 37.9621C324.921 38.6761 325.739 39.2384 326.647 39.6119C327.556 39.9853 328.533 40.1612 329.514 40.1279C330.64 40.1316 331.76 39.9609 332.834 39.6219C333.73 39.3646 334.582 38.9758 335.364 38.4681V21.9818C334.858 21.8603 334.19 21.749 333.416 21.6478C332.447 21.5356 331.471 21.4849 330.496 21.496C327.814 21.496 325.763 22.3782 324.343 24.1425C322.922 25.9069 322.216 28.2312 322.222 31.1156Z" fill="#00A04D"/>
<path d="M346.699 32.0871C346.652 29.5738 347.079 27.0742 347.959 24.7194C348.695 22.7572 349.825 20.9663 351.279 19.4567C352.62 18.0785 354.238 16.999 356.025 16.289C357.767 15.5875 359.627 15.2251 361.505 15.2213C365.891 15.2213 369.312 16.5808 371.768 19.2999C374.223 22.0189 375.451 26.0789 375.451 31.4799C375.451 31.8847 375.451 32.3402 375.421 32.8512C375.391 33.3623 375.37 33.8127 375.33 34.2175H354.31C354.512 36.778 355.416 38.7583 357.022 40.1583C358.628 41.5583 360.952 42.2583 363.995 42.2583C365.641 42.2681 367.284 42.0984 368.893 41.7522C370.089 41.5214 371.261 41.1827 372.395 40.7402L373.372 46.767C372.831 47.0228 372.271 47.236 371.697 47.4046C370.896 47.654 370.081 47.8584 369.258 48.0169C368.347 48.199 367.36 48.3508 366.308 48.4723C365.236 48.5946 364.158 48.6554 363.079 48.6545C360.586 48.7095 358.105 48.2851 355.772 47.4046C353.823 46.6578 352.072 45.4716 350.656 43.9383C349.301 42.4247 348.285 40.6391 347.676 38.7009C347.004 36.5615 346.674 34.3294 346.699 32.0871V32.0871ZM368.074 28.798C368.08 27.8184 367.934 26.8439 367.643 25.9086C367.386 25.0445 366.963 24.2386 366.399 23.5353C365.849 22.8641 365.158 22.3231 364.374 21.9514C363.486 21.5467 362.517 21.3494 361.541 21.3746C360.52 21.3548 359.508 21.5731 358.586 22.0122C357.757 22.417 357.02 22.987 356.42 23.6871C355.822 24.3889 355.356 25.1929 355.043 26.0604C354.718 26.945 354.492 27.8632 354.37 28.798H368.074Z" fill="#00A04D"/>
<path d="M37.2233 8.02052H10.6417C4.76447 8.02052 0 12.785 0 18.6623V45.2438C0 51.1211 4.76447 55.8856 10.6417 55.8856H37.2233C43.1006 55.8856 47.865 51.1211 47.865 45.2438V18.6623C47.865 12.785 43.1006 8.02052 37.2233 8.02052Z" fill="url(#paint0_linear)"/>
<path d="M19.1278 31.9505H28.7373L39.8395 16.0107H30.0934L19.1278 31.9505Z" fill="url(#paint1_linear)"/>
<path d="M19.1278 31.9505H28.7373L39.8395 47.8903H30.0934L19.1278 31.9505Z" fill="url(#paint2_linear)"/>
<path d="M28.7372 31.9505L23.93 38.9387L8.02557 16.0107H17.7716L28.7372 31.9505Z" fill="url(#paint3_linear)"/>
<path d="M28.7372 31.9505L23.93 24.9673L8.02557 47.8903H17.7716L28.7372 31.9505Z" fill="white"/>
<g style="mix-blend-mode:multiply" opacity="0.1">
<path d="M23.93 24.9673L17.9538 30.3262L19.1278 31.9505L23.93 24.9673Z" fill="#010101"/>
</g>
<path d="M376.069 3.36507V4.78701H373.301V12.3774H371.651V4.78701H368.883V3.36507H376.069Z" fill="#00A04D"/>
<path d="M379.616 3.36507C379.803 3.69905 380.016 4.09881 380.254 4.57448C380.491 5.05014 380.724 5.55617 380.967 6.09256C381.21 6.62894 381.448 7.15015 381.691 7.6916C381.934 8.23305 382.146 8.73401 382.343 9.20968C382.546 8.74751 382.763 8.24148 382.996 7.6916C383.229 7.15015 383.467 6.61882 383.71 6.09256C383.953 5.56629 384.216 5.0805 384.423 4.57448C384.631 4.06845 384.874 3.69905 385.061 3.36507H386.538C386.619 4.02797 386.695 4.72629 386.766 5.46508C386.837 6.20388 386.898 6.98316 386.953 7.7422C387.009 8.50124 387.065 9.30077 387.115 10.0851C387.166 10.8694 387.206 11.6335 387.242 12.3774H385.628C385.59 11.3282 385.548 10.2487 385.501 9.13884C385.456 8.03064 385.38 6.95786 385.283 5.91545L384.944 6.62894C384.813 6.90726 384.676 7.21088 384.529 7.53473L384.079 8.54679L383.639 9.55884L383.244 10.4697L382.93 11.1933H381.706L381.397 10.4646C381.276 10.1762 381.144 9.87257 380.997 9.54872L380.557 8.53666C380.405 8.18751 380.254 7.85353 380.107 7.52461L379.692 6.61882C379.56 6.33545 379.449 6.1128 379.353 5.91039C379.258 6.9528 379.186 8.02726 379.135 9.13378C379.085 10.2403 379.042 11.3198 379.009 12.3723H377.4C377.435 11.6285 377.475 10.8543 377.521 10.0598C377.567 9.26534 377.622 8.47088 377.683 7.68654C377.744 6.9022 377.804 6.1381 377.875 5.40436C377.946 4.67062 378.017 3.98749 378.098 3.38026L379.616 3.36507Z" fill="#00A04D"/>
<defs>
<linearGradient id="paint0_linear" x1="-1.71037" y1="36.4744" x2="49.5754" y2="27.4317" gradientUnits="userSpaceOnUse">
<stop stop-color="#0097DC"/>
<stop offset="0.44" stop-color="#0073A8"/>
<stop offset="0.81" stop-color="#005882"/>
<stop offset="1" stop-color="#004E74"/>
</linearGradient>
<linearGradient id="paint1_linear" x1="35.5231" y1="13.521" x2="23.4442" y2="34.4452" gradientUnits="userSpaceOnUse">
<stop offset="0.06" stop-color="#A6CE39"/>
<stop offset="0.97" stop-color="#00B04C"/>
</linearGradient>
<linearGradient id="paint2_linear" x1="1378.85" y1="1452.99" x2="1094.46" y2="965.852" gradientUnits="userSpaceOnUse">
<stop offset="0.06" stop-color="#A6CE39"/>
<stop offset="0.97" stop-color="#00B04C"/>
</linearGradient>
<linearGradient id="paint3_linear" x1="11.2844" y1="27.4772" x2="26.5259" y2="27.4772" gradientUnits="userSpaceOnUse">
<stop offset="0.06" stop-color="white"/>
<stop offset="0.97" stop-color="#D1D3D4"/>
</linearGradient>
</defs>
</svg>
