<?xml version="1.0" encoding="UTF-8"?>
<svg id="Layer_2" data-name="Layer 2" xmlns="http://www.w3.org/2000/svg" viewBox="0 0 809.48 118.73">
  <defs>
    <style>
      .cls-1 {
        fill: #1e85ff;
      }

      .cls-2 {
        fill: #062c61;
      }
    </style>
  </defs>
  <g id="Layer_1-2" data-name="Layer 1">
    <g>
      <g>
        <path class="cls-2" d="M182.05,43.11c-.88-3.23-2.35-5.97-4.4-8.23-2.05-2.26-4.8-4.02-8.23-5.28-3.44-1.26-7.67-1.89-12.7-1.89-4.19,0-8.13,.34-11.82,1.01-3.69,.67-6.49,1.34-8.42,2.01l1.88,12.32c1.84-.67,4.23-1.26,7.16-1.76,2.93-.5,6.16-.75,9.68-.75,2.6,0,4.76,.34,6.47,1.01,1.72,.67,3.1,1.61,4.15,2.83,1.05,1.22,1.78,2.62,2.2,4.21,.42,1.59,.63,3.27,.63,5.03v2.51c-2.1-.5-4.07-.86-5.91-1.07-1.84-.21-3.6-.31-5.28-.31-3.6,0-7.06,.36-10.37,1.07-3.31,.71-6.22,1.89-8.74,3.52-2.51,1.63-4.51,3.75-5.97,6.35-1.47,2.6-2.2,5.78-2.2,9.55s.65,7.25,1.95,9.93c1.3,2.68,3.1,4.86,5.41,6.54,2.3,1.68,5.09,2.89,8.36,3.65,3.27,.75,6.87,1.13,10.81,1.13,5.95,0,11.29-.36,16.03-1.07,4.73-.71,8.28-1.32,10.62-1.82V53.73c0-3.85-.44-7.39-1.32-10.62Zm-13.39,40.54c-2.43,.5-5.99,.75-10.69,.75-3.86,0-6.91-.69-9.18-2.07-2.26-1.38-3.39-3.87-3.39-7.48,0-1.84,.42-3.37,1.26-4.59,.84-1.21,1.95-2.16,3.33-2.83,1.38-.67,2.93-1.13,4.65-1.38,1.72-.25,3.41-.38,5.09-.38,1.93,0,3.69,.13,5.28,.38,1.59,.25,2.81,.5,3.65,.75v16.85Z"/>
        <path class="cls-2" d="M212.25,95.09c-4.21-8.63-8.52-18.54-12.94-29.73-4.42-11.19-8.44-23.19-12.05-36.01h16.22c.92,3.69,2,7.65,3.22,11.88,1.22,4.23,2.52,8.47,3.91,12.7,1.39,4.23,2.82,8.34,4.29,12.32,1.47,3.98,2.84,7.56,4.1,10.75,1.26-3.18,2.61-6.77,4.04-10.75,1.43-3.98,2.84-8.09,4.23-12.32,1.39-4.23,2.71-8.46,3.97-12.7,1.26-4.23,2.35-8.19,3.28-11.88h15.72c-3.62,12.82-7.64,24.83-12.05,36.01-4.42,11.19-8.73,21.1-12.94,29.73h-13Z"/>
        <g>
          <path class="cls-2" d="M274.79,12.85c0,2.85-.92,5.11-2.77,6.79-1.84,1.68-4.02,2.51-6.54,2.51s-4.82-.84-6.66-2.51c-1.84-1.68-2.77-3.94-2.77-6.79s.92-5.24,2.77-6.91c1.84-1.67,4.06-2.51,6.66-2.51s4.69,.84,6.54,2.51c1.84,1.68,2.77,3.98,2.77,6.91Z"/>
          <rect class="cls-2" x="257.94" y="29.35" width="15.21" height="65.75"/>
        </g>
        <path class="cls-2" d="M326.58,2.51V31.61c-1.76-.92-3.86-1.76-6.29-2.51-2.43-.75-5.24-1.13-8.42-1.13-4.69,0-8.84,.82-12.44,2.45-3.6,1.63-6.66,3.96-9.18,6.98-2.52,3.02-4.42,6.64-5.72,10.87-1.3,4.23-1.95,8.95-1.95,14.14s.77,10.04,2.32,14.27c1.55,4.23,3.77,7.84,6.66,10.81,2.89,2.98,6.39,5.26,10.5,6.85,4.11,1.59,8.76,2.39,13.95,2.39s9.83-.38,14.39-1.13c4.57-.75,8.36-1.59,11.38-2.51V0l-15.21,2.51Zm0,80.01c-1.09,.25-2.5,.48-4.21,.69-1.72,.21-3.79,.31-6.22,.31-5.62,0-10.02-1.91-13.2-5.72-3.19-3.81-4.78-9.07-4.78-15.78s1.28-11.57,3.83-15.34c2.56-3.77,6.6-5.66,12.13-5.66,2.51,0,4.88,.4,7.1,1.19,2.22,.8,4,1.66,5.34,2.58v37.71Z"/>
        <path class="cls-2" d="M382.55,49.48l13.97-20.13h15.97l-22.08,31.49c4.61,5.79,9.03,11.65,13.26,17.56,4.23,5.92,7.71,11.48,10.45,16.69h-16.56c-.77-1.54-1.75-3.24-2.96-5.08-1.21-1.85-2.5-3.77-3.87-5.77-1.37-2-2.81-3.98-4.31-5.94-1.5-1.96-2.96-3.81-4.37-5.54-2.95,3.42-5.83,7.2-8.65,11.34-2.82,4.14-5.15,7.8-7.01,10.99h-15.51c1.24-2.52,2.77-5.18,4.58-7.98,1.81-2.79,3.75-5.65,5.82-8.56,2.07-2.91,4.2-5.83,6.4-8.75,2.2-2.91,4.38-5.69,6.53-8.32l-22.32-32.14h16.72l13.94,20.13Z"/>
        <path class="cls-2" d="M415.29,62.28c0-4.86,.75-9.41,2.26-13.64,1.51-4.23,3.67-7.9,6.47-11,2.81-3.1,6.22-5.53,10.25-7.29,4.02-1.76,8.55-2.64,13.58-2.64,6.2,0,12.07,1.13,17.6,3.39l-3.27,12.45c-1.76-.75-3.75-1.38-5.97-1.89-2.22-.5-4.59-.75-7.1-.75-5.95,0-10.48,1.87-13.58,5.59-3.1,3.73-4.65,8.99-4.65,15.78s1.47,11.71,4.4,15.53c2.93,3.81,7.88,5.72,14.83,5.72,2.6,0,5.15-.25,7.67-.75,2.51-.5,4.69-1.13,6.54-1.89l2.14,12.57c-1.68,.84-4.21,1.59-7.6,2.26-3.4,.67-6.9,1.01-10.5,1.01-5.62,0-10.5-.86-14.65-2.58-4.15-1.72-7.59-4.11-10.31-7.16-2.72-3.06-4.76-6.7-6.1-10.94-1.34-4.23-2.01-8.82-2.01-13.77Z"/>
        <path class="cls-2" d="M475.75,95.09V2.51l15.21-2.51V30.1c1.67-.59,3.62-1.09,5.84-1.51,2.22-.42,4.42-.63,6.6-.63,5.28,0,9.66,.73,13.14,2.2,3.47,1.47,6.26,3.52,8.36,6.16,2.09,2.64,3.58,5.8,4.46,9.49,.88,3.69,1.32,7.79,1.32,12.32v36.96h-15.21V60.52c0-3.52-.23-6.52-.69-8.99-.46-2.47-1.22-4.48-2.26-6.03-1.05-1.55-2.45-2.68-4.21-3.39-1.76-.71-3.94-1.07-6.54-1.07-2.01,0-4.07,.21-6.16,.63-2.1,.42-3.65,.8-4.65,1.13v52.29h-15.21Z"/>
        <path class="cls-2" d="M591.09,43.11c-.88-3.23-2.35-5.97-4.4-8.23-2.05-2.26-4.8-4.02-8.23-5.28-3.44-1.26-7.67-1.89-12.7-1.89-4.19,0-8.13,.34-11.82,1.01-3.69,.67-6.5,1.34-8.42,2.01l1.88,12.32c1.84-.67,4.23-1.26,7.17-1.76,2.93-.5,6.16-.75,9.68-.75,2.6,0,4.76,.34,6.47,1.01,1.72,.67,3.1,1.61,4.15,2.83,1.05,1.22,1.78,2.62,2.2,4.21,.42,1.59,.63,3.27,.63,5.03v2.51c-2.1-.5-4.07-.86-5.91-1.07-1.84-.21-3.6-.31-5.28-.31-3.6,0-7.06,.36-10.37,1.07-3.31,.71-6.22,1.89-8.74,3.52-2.51,1.63-4.51,3.75-5.97,6.35-1.47,2.6-2.2,5.78-2.2,9.55s.65,7.25,1.95,9.93c1.3,2.68,3.1,4.86,5.41,6.54,2.3,1.68,5.09,2.89,8.36,3.65,3.27,.75,6.87,1.13,10.81,1.13,5.95,0,11.29-.36,16.03-1.07,4.73-.71,8.28-1.32,10.62-1.82V53.73c0-3.85-.44-7.39-1.32-10.62Zm-13.39,40.54c-2.43,.5-5.99,.75-10.69,.75-3.86,0-6.91-.69-9.18-2.07-2.26-1.38-3.4-3.87-3.4-7.48,0-1.84,.42-3.37,1.26-4.59,.84-1.21,1.95-2.16,3.33-2.83,1.38-.67,2.93-1.13,4.65-1.38,1.72-.25,3.41-.38,5.09-.38,1.93,0,3.69,.13,5.28,.38,1.59,.25,2.81,.5,3.65,.75v16.85Z"/>
        <path class="cls-2" d="M603.47,31.48c2.93-.84,6.74-1.63,11.44-2.39,4.69-.75,9.89-1.13,15.59-1.13,5.36,0,9.85,.73,13.45,2.2,3.6,1.47,6.47,3.52,8.61,6.16,2.14,2.64,3.65,5.83,4.53,9.55,.88,3.73,1.32,7.81,1.32,12.26v36.96h-15.21V60.52c0-3.52-.23-6.52-.69-8.99-.46-2.47-1.22-4.48-2.26-6.03-1.05-1.55-2.47-2.68-4.27-3.39-1.8-.71-4-1.07-6.6-1.07-1.93,0-3.94,.13-6.03,.38-2.1,.25-3.65,.46-4.65,.63v53.05h-15.21V31.48Z"/>
        <path class="cls-2" d="M711.83,29.1c-4.44-.75-9.13-1.13-14.08-1.13s-9.68,.8-13.7,2.39c-4.02,1.59-7.44,3.81-10.25,6.66-2.81,2.85-4.95,6.29-6.41,10.31-1.47,4.02-2.2,8.42-2.2,13.2,0,5.11,.69,9.62,2.07,13.51,1.38,3.9,3.31,7.15,5.78,9.74,2.47,2.6,5.45,4.57,8.93,5.91,3.48,1.34,7.31,2.01,11.5,2.01,3.18,0,6.01-.38,8.49-1.13,2.47-.75,4.46-1.51,5.97-2.26v2.51c0,4.94-1.3,8.67-3.9,11.19-2.6,2.51-6.96,3.77-13.07,3.77-3.86,0-7.44-.34-10.75-1.01-3.31-.67-6.27-1.55-8.86-2.64l-2.77,12.95c3.1,1.09,6.56,1.97,10.37,2.64,3.81,.67,7.73,1.01,11.75,1.01,10.98,0,19.13-2.43,24.45-7.29,5.32-4.86,7.98-12.53,7.98-23V31.48c-3.1-.84-6.87-1.63-11.31-2.39Zm-3.9,46.64c-1.34,.92-3.08,1.72-5.22,2.39-2.14,.67-4.42,1.01-6.85,1.01-4.44,0-8.07-1.49-10.87-4.46-2.81-2.97-4.21-7.69-4.21-14.14,0-5.95,1.47-10.75,4.4-14.39,2.93-3.65,7.17-5.47,12.7-5.47,2.43,0,4.44,.11,6.03,.31,1.59,.21,2.93,.44,4.02,.69v34.07Z"/>
        <path class="cls-2" d="M783.04,36.14c-5.07-5.61-12.13-8.42-21.18-8.42-3.86,0-7.63,.73-11.31,2.2-3.69,1.47-6.96,3.65-9.8,6.54-2.85,2.89-5.14,6.52-6.85,10.87-1.72,4.36-2.58,9.43-2.58,15.21,0,4.95,.67,9.49,2.01,13.64,1.34,4.15,3.39,7.75,6.16,10.81,2.77,3.06,6.29,5.45,10.56,7.17,4.27,1.72,9.3,2.58,15.09,2.58,2.26,0,4.48-.13,6.66-.38,2.18-.25,4.21-.57,6.1-.94,1.89-.38,3.56-.8,5.03-1.26,1.47-.46,2.62-.9,3.46-1.32l-2.01-12.45c-1.76,.75-4.17,1.47-7.23,2.14-3.06,.67-6.43,1.01-10.12,1.01-6.29,0-11.08-1.45-14.39-4.34-3.31-2.89-5.18-6.98-5.59-12.26h43.37c.08-.84,.15-1.78,.19-2.83,.04-1.05,.06-1.99,.06-2.83,0-11.15-2.54-19.53-7.61-25.14Zm-35.89,19.61c.25-1.93,.71-3.81,1.38-5.66,.67-1.84,1.61-3.48,2.83-4.9,1.21-1.42,2.7-2.58,4.46-3.46,1.76-.88,3.81-1.32,6.16-1.32s4.21,.4,5.84,1.19c1.64,.8,3.02,1.89,4.15,3.27,1.13,1.38,1.99,3.02,2.58,4.9,.59,1.89,.88,3.88,.88,5.97h-28.28Z"/>
      </g>
      <path class="cls-2" d="M802.28,27.88c-3.98,0-7.21,3.23-7.21,7.21s3.23,7.21,7.21,7.21,7.21-3.23,7.21-7.21-3.23-7.21-7.21-7.21Zm0,13.1c-3.26,0-5.9-2.64-5.9-5.9s2.64-5.9,5.9-5.9,5.9,2.64,5.9,5.9-2.64,5.9-5.9,5.9Zm3.17-2.87c-.19-.32-.37-.62-.56-.92-.19-.29-.37-.56-.54-.8-.17-.24-.33-.44-.46-.6,.48-.2,.85-.48,1.1-.85,.26-.37,.39-.79,.39-1.28,0-.86-.3-1.51-.9-1.93-.6-.42-1.47-.64-2.61-.64-.33,0-.7,.02-1.1,.06-.4,.04-.78,.1-1.13,.18v7.72h1.41v-2.99h1.33c.28,.32,.61,.75,.99,1.28,.38,.54,.72,1.1,1.03,1.7h1.53c-.15-.32-.31-.64-.5-.96Zm-2.13-3.43c-.4,.17-.9,.25-1.49,.25h-.76v-2.55c.15-.01,.3-.02,.46-.03,.16,0,.31,0,.46,0,.53,0,.99,.1,1.36,.29,.38,.19,.57,.53,.57,1.03,0,.52-.2,.86-.6,1.03Z"/>
      <path class="cls-1" d="M84.68,10.41H18.93C8.47,10.41,0,18.88,0,29.33V95.08c0,10.45,8.47,18.93,18.93,18.93H84.68c10.45,0,18.93-8.47,18.93-18.93V29.33c0-10.45-8.47-18.93-18.93-18.93ZM18.93,95.08l23.41-32.87L18.93,29.33h18.93l23.41,32.87-23.41,32.87H18.93Zm46.82,0l-9.22-12.94,9.46-13.29,18.68,26.23h-18.93Zm.24-39.52l-9.46-13.29,9.22-12.94h18.93l-18.68,26.23Z"/>
    </g>
  </g>
</svg>