<svg width="271" height="203" viewBox="0 0 271 203" fill="none" xmlns="http://www.w3.org/2000/svg">
<rect width="271" height="203" rx="4" fill="#404143"/>
<g clip-path="url(#clip0_1387_341975)">
<path d="M12 58C12 55.7909 13.7909 54 16 54H255C257.209 54 259 55.7909 259 58V145C259 147.209 257.209 149 255 149H16C13.7909 149 12 147.209 12 145V58Z" fill="#E9EBED"/>
<rect x="20" y="109" width="231" height="32" rx="2" fill="white"/>
<path d="M24.375 115.706C24.375 114.96 24.9797 114.355 25.7257 114.355H100.123C100.869 114.355 101.474 114.96 101.474 115.706C101.474 116.452 100.869 117.057 100.123 117.057H25.7257C24.9797 117.057 24.375 116.452 24.375 115.706Z" fill="#86939D"/>
<rect x="20" y="71" width="96" height="3" rx="1.5" fill="#86939D"/>
<rect x="20" y="80" width="120" height="3" rx="1.5" fill="#86939D"/>
<rect x="20" y="62" width="148" height="3" rx="1.5" fill="#86939D"/>
<path d="M26.8061 129.591L28.4936 132.382L30.1811 129.591H31.0632L28.9581 132.864L31.0632 136.137H30.1811L28.4936 133.435L26.8061 136.137H25.9283L28.0078 132.864L25.9283 129.591H26.8061ZM33.1825 129.591L34.87 132.382L36.5575 129.591H37.4396L35.3345 132.864L37.4396 136.137H36.5575L34.87 133.435L33.1825 136.137H32.3047L34.3842 132.864L32.3047 129.591H33.1825ZM39.5589 129.591L41.2464 132.382L42.9339 129.591H43.816L41.7109 132.864L43.816 136.137H42.9339L41.2464 133.435L39.5589 136.137H38.6811L40.7606 132.864L38.6811 129.591H39.5589ZM45.9353 129.591L47.6228 132.382L49.3103 129.591H50.1924L48.0873 132.864L50.1924 136.137H49.3103L47.6228 133.435L45.9353 136.137H45.0575L47.137 132.864L45.0575 129.591H45.9353ZM52.3117 129.591L53.9992 132.382L55.6867 129.591H56.5688L54.4637 132.864L56.5688 136.137H55.6867L53.9992 133.435L52.3117 136.137H51.4339L53.5134 132.864L51.4339 129.591H52.3117ZM58.6881 129.591L60.3756 132.382L62.0631 129.591H62.9452L60.8401 132.864L62.9452 136.137H62.0631L60.3756 133.435L58.6881 136.137H57.8103L59.8898 132.864L57.8103 129.591H58.6881ZM65.0645 129.591L66.752 132.382L68.4395 129.591H69.3216L67.2165 132.864L69.3216 136.137H68.4395L66.752 133.435L65.0645 136.137H64.1867L66.2663 132.864L64.1867 129.591H65.0645ZM71.4409 129.591L73.1285 132.382L74.816 129.591H75.6981L73.5929 132.864L75.6981 136.137H74.816L73.1285 133.435L71.4409 136.137H70.5631L72.6427 132.864L70.5631 129.591H71.4409ZM77.8174 129.591L79.5049 132.382L81.1924 129.591H82.0745L79.9693 132.864L82.0745 136.137H81.1924L79.5049 133.435L77.8174 136.137H76.9395L79.0191 132.864L76.9395 129.591H77.8174ZM181.814 129.591L183.502 132.382L185.189 129.591H186.071L183.966 132.864L186.071 136.137H185.189L183.502 133.435L181.814 136.137H180.936L183.016 132.864L180.936 129.591H181.814ZM188.191 129.591L189.878 132.382L191.566 129.591H192.448L190.343 132.864L192.448 136.137H191.566L189.878 133.435L188.191 136.137H187.313L189.392 132.864L187.313 129.591H188.191ZM194.567 129.591L196.255 132.382L197.942 129.591H198.824L196.719 132.864L198.824 136.137H197.942L196.255 133.435L194.567 136.137H193.689L195.769 132.864L193.689 129.591H194.567ZM200.943 129.591L202.631 132.382L204.318 129.591H205.201L203.095 132.864L205.201 136.137H204.318L202.631 133.435L200.943 136.137H200.066L202.145 132.864L200.066 129.591H200.943ZM207.32 129.591L209.007 132.382L210.695 129.591H211.577L209.472 132.864L211.577 136.137H210.695L209.007 133.435L207.32 136.137H206.442L208.522 132.864L206.442 129.591H207.32ZM213.696 129.591L215.384 132.382L217.071 129.591H217.953L215.848 132.864L217.953 136.137H217.071L215.384 133.435L213.696 136.137H212.818L214.898 132.864L212.818 129.591H213.696Z" fill="#425A72"/>
<path d="M97.9338 129.591L99.6213 132.382L101.309 129.591H102.191L100.086 132.864L102.191 136.137H101.309L99.6213 133.435L97.9338 136.137H97.0559L99.1355 132.864L97.0559 129.591H97.9338ZM104.31 129.591L105.998 132.382L107.685 129.591H108.567L106.462 132.864L108.567 136.137H107.685L105.998 133.435L104.31 136.137H103.432L105.512 132.864L103.432 129.591H104.31ZM110.687 129.591L112.374 132.382L114.062 129.591H114.944L112.839 132.864L114.944 136.137H114.062L112.374 133.435L110.687 136.137H109.809L111.888 132.864L109.809 129.591H110.687ZM117.063 129.591L118.75 132.382L120.438 129.591H121.32L119.215 132.864L121.32 136.137H120.438L118.75 133.435L117.063 136.137H116.185L118.265 132.864L116.185 129.591H117.063ZM123.439 129.591L125.127 132.382L126.814 129.591H127.696L125.591 132.864L127.696 136.137H126.814L125.127 133.435L123.439 136.137H122.562L124.641 132.864L122.562 129.591H123.439ZM129.816 129.591L131.503 132.382L133.191 129.591H134.073L131.968 132.864L134.073 136.137H133.191L131.503 133.435L129.816 136.137H128.938L131.018 132.864L128.938 129.591H129.816ZM136.192 129.591L137.88 132.382L139.567 129.591H140.449L138.344 132.864L140.449 136.137H139.567L137.88 133.435L136.192 136.137H135.314L137.394 132.864L135.314 129.591H136.192ZM142.569 129.591L144.256 132.382L145.944 129.591H146.826L144.721 132.864L146.826 136.137H145.944L144.256 133.435L142.569 136.137H141.691L143.77 132.864L141.691 129.591H142.569ZM148.945 129.591L150.633 132.382L152.32 129.591H153.202L151.097 132.864L153.202 136.137H152.32L150.633 133.435L148.945 136.137H148.067L150.147 132.864L148.067 129.591H148.945ZM155.321 129.591L157.009 132.382L158.696 129.591H159.579L157.473 132.864L159.579 136.137H158.696L157.009 133.435L155.321 136.137H154.444L156.523 132.864L154.444 129.591H155.321ZM161.698 129.591L163.385 132.382L165.073 129.591H165.955L163.85 132.864L165.955 136.137H165.073L163.385 133.435L161.698 136.137H160.82L162.9 132.864L160.82 129.591H161.698Z" fill="#2F3941"/>
<rect x="210" y="62" width="41" height="14" rx="2" fill="white"/>
<rect x="95" y="128" width="73" height="10" stroke="#458FFF" stroke-width="2"/>
</g>
<defs>
<clipPath id="clip0_1387_341975">
<rect width="247" height="95" fill="white" transform="translate(12 54)"/>
</clipPath>
</defs>
</svg>
